<svg width="90" height="21" viewBox="0 0 90 21" fill="none" xmlns="http://www.w3.org/2000/svg">
<path d="M0 20.4162V20.1245L0.412742 20.0078C1.10064 19.8134 1.4446 19.337 1.4446 18.5787V9.44977C1.4446 9.022 1.37581 8.7109 1.23822 8.51646C1.10064 8.30258 0.83531 8.15675 0.442223 8.07897L0 7.96231V7.67065L5.04134 5.97902L5.33616 6.27068L5.57201 8.02064C6.25991 7.41788 7.03626 6.92205 7.90105 6.53317C8.76584 6.1443 9.62081 5.94986 10.4659 5.94986C11.7631 5.94986 12.7557 6.29985 13.4436 6.99983C14.1511 7.69981 14.5049 8.76923 14.5049 10.2081V18.6079C14.5049 19.3662 14.8784 19.8426 15.6252 20.037L15.8906 20.1245V20.4162H8.93291V20.1245L9.31617 20.0078C10.0041 19.794 10.348 19.3176 10.348 18.5787V9.27478C10.348 8.03036 9.71908 7.40815 8.4612 7.40815C7.59641 7.40815 6.653 7.83592 5.63097 8.69146V18.6079C5.63097 19.3662 5.97493 19.8426 6.66283 20.037L6.92816 20.1245V20.4162H0Z" fill="white"/>
<path d="M24.5028 20.8537C23.0091 20.8537 21.7119 20.5523 20.6113 19.9495C19.5106 19.3273 18.6557 18.4523 18.0464 17.3246C17.4568 16.1968 17.1619 14.8746 17.1619 13.358C17.1619 11.8414 17.4764 10.5289 18.1054 9.42061C18.7539 8.3123 19.6286 7.45676 20.7292 6.854C21.8495 6.25124 23.1074 5.94986 24.5028 5.94986C25.8983 5.94986 27.1464 6.25124 28.247 6.854C29.3476 7.43732 30.2124 8.28313 30.8414 9.39144C31.49 10.4997 31.8143 11.8219 31.8143 13.358C31.8143 14.8941 31.5096 16.226 30.9003 17.3537C30.3107 18.4621 29.4656 19.3273 28.3649 19.9495C27.2839 20.5523 25.9966 20.8537 24.5028 20.8537ZM24.5028 20.2703C25.1907 20.2703 25.7411 20.0759 26.1538 19.687C26.5666 19.2981 26.8614 18.6079 27.0383 17.6162C27.2348 16.6246 27.3331 15.2246 27.3331 13.4163C27.3331 11.5886 27.2348 10.1789 27.0383 9.18728C26.8614 8.19563 26.5666 7.50537 26.1538 7.11649C25.7411 6.72761 25.1907 6.53317 24.5028 6.53317C23.8149 6.53317 23.2548 6.72761 22.8224 7.11649C22.4097 7.50537 22.105 8.19563 21.9085 9.18728C21.7316 10.1789 21.6431 11.5886 21.6431 13.4163C21.6431 15.2246 21.7316 16.6246 21.9085 17.6162C22.105 18.6079 22.4097 19.2981 22.8224 19.687C23.2548 20.0759 23.8149 20.2703 24.5028 20.2703Z" fill="white"/>
<path d="M38.5955 20.8537C37.3376 20.8537 36.3549 20.5426 35.6473 19.9203C34.9594 19.2981 34.6155 18.3065 34.6155 16.9454V6.97066H32.5812V6.67901L33.2888 6.56234C33.8981 6.42623 34.4189 6.23179 34.8513 5.97902C35.3034 5.72625 35.7456 5.38598 36.178 4.95821L38.5955 2.30411H38.8903L38.8019 6.38734H42.1038V6.97066H38.7724V17.4704C38.7724 18.1509 38.9198 18.6662 39.2146 19.0162C39.5291 19.3662 39.9222 19.5412 40.3939 19.5412C40.8066 19.5412 41.1702 19.444 41.4847 19.2495C41.7991 19.0357 42.1136 18.7537 42.4281 18.4037L42.7229 18.6954C42.3298 19.3565 41.7893 19.8815 41.1014 20.2703C40.4135 20.6592 39.5782 20.8537 38.5955 20.8537Z" fill="white"/>
<path d="M50.96 5.94986C52.2375 5.94986 53.3283 6.21235 54.2324 6.73734C55.1365 7.24288 55.8244 7.94286 56.2962 8.83729C56.7875 9.71226 57.0332 10.7136 57.0332 11.8414C57.0332 12.0553 57.0234 12.2789 57.0037 12.5122C56.9841 12.7261 56.9447 12.9205 56.8858 13.0955H48.1003C48.1199 15.1955 48.4934 16.7121 49.2206 17.6454C49.9674 18.5593 51.0681 19.0162 52.5225 19.0162C53.5052 19.0162 54.3012 18.8607 54.9105 18.5495C55.5198 18.2384 56.0898 17.7815 56.6204 17.1788L56.9153 17.4412C56.306 18.5107 55.4903 19.3468 54.4683 19.9495C53.4659 20.5523 52.2572 20.8537 50.8421 20.8537C49.4466 20.8537 48.2084 20.562 47.1274 19.9787C46.0464 19.3759 45.2013 18.5204 44.592 17.4121C43.9827 16.3038 43.6781 14.9816 43.6781 13.4455C43.6781 11.8511 44.0318 10.4997 44.7394 9.39144C45.4469 8.26369 46.351 7.40815 47.4517 6.82483C48.572 6.24152 49.7414 5.94986 50.96 5.94986ZM50.8715 6.53317C50.3016 6.53317 49.8102 6.70817 49.3975 7.05816C49.0044 7.38871 48.6899 7.99147 48.4541 8.86645C48.2379 9.72199 48.1199 10.9372 48.1003 12.5122H53.1416C53.3382 10.3928 53.2596 8.86645 52.9058 7.93314C52.552 6.99983 51.8739 6.53317 50.8715 6.53317Z" fill="white"/>
<path d="M61.9608 20.8537C61.2532 20.8537 60.6537 20.6106 60.1624 20.1245C59.671 19.6384 59.4253 19.0551 59.4253 18.3746C59.4253 17.694 59.671 17.101 60.1624 16.5954C60.6537 16.0899 61.2532 15.8371 61.9608 15.8371C62.6683 15.8371 63.2678 16.0899 63.7591 16.5954C64.2505 17.101 64.4962 17.694 64.4962 18.3746C64.4962 19.0551 64.2505 19.6384 63.7591 20.1245C63.2678 20.6106 62.6683 20.8537 61.9608 20.8537Z" fill="white"/>
<path d="M70.5046 4.43323C69.8364 4.43323 69.2664 4.22906 68.7947 3.82074C68.3427 3.39297 68.1166 2.85826 68.1166 2.21661C68.1166 1.55552 68.3427 1.02081 68.7947 0.612486C69.2664 0.204162 69.8364 0 70.5046 0C71.1729 0 71.733 0.204162 72.1851 0.612486C72.6371 1.02081 72.8632 1.55552 72.8632 2.21661C72.8632 2.85826 72.6371 3.39297 72.1851 3.82074C71.733 4.22906 71.1729 4.43323 70.5046 4.43323ZM67.0258 20.4162V20.1245L67.4386 20.0078C67.8316 19.8912 68.097 19.7162 68.2346 19.4829C68.3918 19.2495 68.4704 18.9384 68.4704 18.5495V9.42061C68.4704 9.01228 68.3918 8.7109 68.2346 8.51646C68.097 8.30258 67.8316 8.15675 67.4386 8.07897L67.0258 7.99147V7.69981L72.4209 5.97902L72.7158 6.27068L72.6273 10.4122V18.5787C72.6273 18.9676 72.6961 19.2787 72.8337 19.512C72.9909 19.7454 73.2563 19.9204 73.6297 20.037L73.9245 20.1245V20.4162H67.0258Z" fill="white"/>
<path d="M82.6886 20.8537C81.1948 20.8537 79.8977 20.5523 78.797 19.9495C77.6964 19.3273 76.8414 18.4523 76.2321 17.3246C75.6425 16.1968 75.3477 14.8746 75.3477 13.358C75.3477 11.8414 75.6621 10.5289 76.2911 9.42061C76.9397 8.3123 77.8143 7.45676 78.9149 6.854C80.0352 6.25124 81.2931 5.94986 82.6886 5.94986C84.084 5.94986 85.3321 6.25124 86.4327 6.854C87.5334 7.43732 88.3982 8.28313 89.0271 9.39144C89.6757 10.4997 90 11.8219 90 13.358C90 14.8941 89.6954 16.226 89.0861 17.3537C88.4964 18.4621 87.6513 19.3273 86.5507 19.9495C85.4697 20.5523 84.1823 20.8537 82.6886 20.8537ZM82.6886 20.2703C83.3765 20.2703 83.9268 20.0759 84.3395 19.687C84.7523 19.2981 85.0471 18.6079 85.224 17.6162C85.4205 16.6246 85.5188 15.2246 85.5188 13.4163C85.5188 11.5886 85.4205 10.1789 85.224 9.18728C85.0471 8.19563 84.7523 7.50537 84.3395 7.11649C83.9268 6.72761 83.3765 6.53317 82.6886 6.53317C82.0007 6.53317 81.4405 6.72761 81.0081 7.11649C80.5954 7.50537 80.2907 8.19563 80.0942 9.18728C79.9173 10.1789 79.8289 11.5886 79.8289 13.4163C79.8289 15.2246 79.9173 16.6246 80.0942 17.6162C80.2907 18.6079 80.5954 19.2981 81.0081 19.687C81.4405 20.0759 82.0007 20.2703 82.6886 20.2703Z" fill="white"/>
</svg>
